<svg width="24" height="24" viewBox="0 0 24 24" fill="none" xmlns="http://www.w3.org/2000/svg">
  <path d="M12 2C6.48 2 2 6.48 2 12C2 13.9778 2.53 15.7799 3.43 17.3545L2.05 21.95L6.78 20.59C8.3 21.42 10.02 21.9 12 21.9C17.52 21.9 22 17.42 22 11.9C22 6.38 17.52 2 12 2ZM17.07 16.5C16.86 17.04 16.04 17.49 15.45 17.64C15.06 17.74 14.56 17.82 11.93 16.72C8.75 15.38 6.79 12.15 6.64 11.95C6.5 11.75 5.5 10.42 5.5 9.04C5.5 7.66 6.2 6.99 6.46 6.71C6.68 6.47 7.04 6.36 7.38 6.36C7.49 6.36 7.59 6.37 7.69 6.37C7.95 6.38 8.08 6.39 8.25 6.86C8.46 7.45 9.05 8.83 9.12 8.97C9.19 9.12 9.26 9.32 9.16 9.51C9.07 9.71 8.99 9.8 8.84 9.97C8.69 10.14 8.55 10.27 8.4 10.46C8.26 10.63 8.11 10.81 8.28 11.11C8.45 11.4 9.04 12.35 9.92 13.13C11.05 14.14 12 14.47 12.33 14.61C12.58 14.71 12.87 14.69 13.05 14.5C13.28 14.26 13.56 13.84 13.85 13.43C14.06 13.14 14.33 13.1 14.61 13.2C14.9 13.29 16.27 13.96 16.58 14.12C16.89 14.27 17.1 14.34 17.17 14.47C17.24 14.59 17.24 15.07 17.07 16.5Z" fill="#25D366"/>
</svg>
